<svg xmlns="http://www.w3.org/2000/svg" xmlns:xlink="http://www.w3.org/1999/xlink" width="136" zoomAndPan="magnify" viewBox="0 0 102 30.000001" height="40" preserveAspectRatio="xMidYMid meet" version="1.0"><defs><g/><clipPath id="0bdc28dc05"><path d="M 15 12 L 38 12 L 38 28.394531 L 15 28.394531 Z M 15 12 " clip-rule="nonzero"/></clipPath><clipPath id="b2d6437745"><path d="M 10.867188 0.816406 L 42.800781 0.816406 L 42.800781 20 L 10.867188 20 Z M 10.867188 0.816406 " clip-rule="nonzero"/></clipPath></defs><g clip-path="url(#0bdc28dc05)"><path fill="#231f20" d="M 35.449219 13.164062 L 35.449219 20.488281 L 26.855469 25.453125 L 18.261719 20.488281 L 18.261719 13.164062 L 15.867188 12.050781 L 15.867188 21.871094 L 26.855469 28.214844 L 37.84375 21.871094 L 37.84375 12.050781 L 35.449219 13.164062 " fill-opacity="1" fill-rule="nonzero"/></g><path fill="#f0ac0b" d="M 34.128906 19.726562 L 26.855469 23.925781 L 19.585938 19.726562 L 19.585938 10.894531 L 26.855469 6.695312 L 34.128906 10.894531 L 34.128906 19.726562 " fill-opacity="1" fill-rule="nonzero"/><g clip-path="url(#b2d6437745)"><path fill="#231f20" d="M 41.453125 16.449219 C 41.453125 16.226562 41.339844 16.03125 41.171875 15.914062 L 41.171875 9.039062 L 42.835938 8.265625 L 26.855469 0.816406 L 10.875 8.265625 L 26.855469 15.710938 L 40.414062 9.394531 L 40.414062 15.914062 C 40.246094 16.03125 40.136719 16.226562 40.136719 16.449219 C 40.136719 16.578125 40.171875 16.695312 40.238281 16.796875 L 39.238281 19.15625 L 39.671875 19.15625 L 40.425781 17.492188 L 40.066406 19.15625 L 42.351562 19.15625 L 41.351562 16.796875 C 41.414062 16.695312 41.453125 16.578125 41.453125 16.449219 " fill-opacity="1" fill-rule="nonzero"/></g><g fill="#231f20" fill-opacity="1"><g transform="translate(45.108221, 19.246675)"><g><path d="M 8.328125 -2.015625 L 8.328125 0 L 0.921875 0 L 0.921875 -9.234375 L 8.15625 -9.234375 L 8.15625 -7.21875 L 3.515625 -7.21875 L 3.515625 -5.65625 L 7.609375 -5.65625 L 7.609375 -3.703125 L 3.515625 -3.703125 L 3.515625 -2.015625 Z M 8.328125 -2.015625 "/></g></g></g><g fill="#231f20" fill-opacity="1"><g transform="translate(53.968926, 19.246675)"><g><path d="M 0.921875 -9.234375 L 5.28125 -9.234375 C 6.300781 -9.234375 7.203125 -9.039062 7.984375 -8.65625 C 8.765625 -8.28125 9.367188 -7.742188 9.796875 -7.046875 C 10.222656 -6.359375 10.4375 -5.546875 10.4375 -4.609375 C 10.4375 -3.679688 10.222656 -2.867188 9.796875 -2.171875 C 9.367188 -1.484375 8.765625 -0.945312 7.984375 -0.5625 C 7.203125 -0.1875 6.300781 0 5.28125 0 L 0.921875 0 Z M 5.1875 -2.078125 C 5.976562 -2.078125 6.613281 -2.300781 7.09375 -2.75 C 7.570312 -3.195312 7.8125 -3.816406 7.8125 -4.609375 C 7.8125 -5.398438 7.570312 -6.019531 7.09375 -6.46875 C 6.613281 -6.914062 5.976562 -7.140625 5.1875 -7.140625 L 3.53125 -7.140625 L 3.53125 -2.078125 Z M 5.1875 -2.078125 "/></g></g></g><g fill="#231f20" fill-opacity="1"><g transform="translate(64.860206, 19.246675)"><g><path d="M 5.1875 0.1875 C 3.8125 0.1875 2.742188 -0.1875 1.984375 -0.9375 C 1.222656 -1.6875 0.84375 -2.742188 0.84375 -4.109375 L 0.84375 -9.234375 L 3.453125 -9.234375 L 3.453125 -4.1875 C 3.453125 -2.71875 4.035156 -1.984375 5.203125 -1.984375 C 6.367188 -1.984375 6.953125 -2.71875 6.953125 -4.1875 L 6.953125 -9.234375 L 9.515625 -9.234375 L 9.515625 -4.109375 C 9.515625 -2.742188 9.132812 -1.6875 8.375 -0.9375 C 7.613281 -0.1875 6.550781 0.1875 5.1875 0.1875 Z M 5.1875 0.1875 "/></g></g></g><g fill="#231f20" fill-opacity="1"><g transform="translate(75.224063, 19.246675)"><g><path d="M 0.921875 -9.234375 L 3.53125 -9.234375 L 3.53125 -2.078125 L 7.9375 -2.078125 L 7.9375 0 L 0.921875 0 Z M 0.921875 -9.234375 "/></g></g></g><g fill="#231f20" fill-opacity="1"><g transform="translate(83.267259, 19.246675)"><g><path d="M 6.75 0 L 4.84375 -2.859375 L 2.953125 0 L -0.03125 0 L 3.34375 -4.671875 L 0.125 -9.234375 L 3.0625 -9.234375 L 4.90625 -6.5625 L 6.71875 -9.234375 L 9.546875 -9.234375 L 6.328125 -4.78125 L 9.765625 0 Z M 6.75 0 "/></g></g></g></svg>